Coordinates
version=1
nRows=13
nColumns=22
inDegrees=yes

Units are S.I. units (second, meters, Newtons, ...)
If the header above contains a line with 'inDegrees', this indicates whether rotational values are in degrees (yes) or radians (no).

endheader
time	pelvis_tilt	pelvis_list	pelvis_rotation	pelvis_tx	pelvis_ty	pelvis_tz	hip_flexion_r	hip_adduction_r	hip_rotation_r	knee_angle_r	ankle_angle_r	subtalar_angle_r	hip_flexion_l	hip_adduction_l	hip_rotation_l	knee_angle_l	ankle_angle_l	subtalar_angle_l	lumbar_extension	lumbar_bending	lumbar_rotation
      4.14000000	      1.93309410	     -1.41164753	     20.40514431	     -0.15667028	      1.00367450	     -0.45470295	      8.23107102	     13.41094856	     -3.71698595	    -18.73721836	      8.80785244	    -12.95768442	     16.76501755	    -11.65258617	     -1.74288585	    -52.10190017	      9.90158618	      3.13002113	    -15.08104407	      5.17917048	      5.54063174
      4.15000000	      1.75098443	     -1.53445330	     19.63548781	     -0.15211613	      1.00349157	     -0.45492440	      7.98701554	     13.57510722	     -3.06273593	    -18.56570682	      8.90420904	    -12.89082792	     17.25684941	    -11.64322981	     -0.60122408	    -50.55116704	     10.08906929	      2.42310287	    -15.00178718	      5.16090366	      5.82864040
      4.16000000	      1.55061433	     -1.66664537	     18.80169962	     -0.14755776	      1.00322371	     -0.45504596	      7.78033175	     13.74931349	     -2.32723151	    -18.44101422	      9.00149128	    -12.85516687	     17.72587565	    -11.64178055	      0.43468917	    -48.96287742	     10.33947067	      1.98699551	    -14.90254279	      5.14332427	      6.18844919
      4.17000000	      1.35067178	     -1.76724392	     17.98793993	     -0.14306800	      1.00296331	     -0.45521354	      7.58863032	     13.88170974	     -1.61123906	    -18.36337381	      9.10917371	    -12.79211702	     18.16322711	    -11.56821373	      1.46065987	    -47.33675387	     10.49891928	      1.39028159	    -14.81984648	      5.11189778	      6.47302548
      4.18000000	      1.13050380	     -1.84050881	     17.12328845	     -0.13856589	      1.00267180	     -0.45532433	      7.42705493	     13.98234716	     -0.84629148	    -18.33756303	      9.23154815	    -12.76396776	     18.57211621	    -11.45381039	      2.37333247	    -45.68681138	     10.67360658	      1.12865022	    -14.72513248	      5.04461469	      6.79752090
      4.19000000	      0.91178844	     -1.88381416	     16.25364414	     -0.13410153	      1.00239069	     -0.45544625	      7.27851868	     14.04984629	     -0.07051844	    -18.35861136	      9.36620592	    -12.71984866	     18.95370038	    -11.27654117	      3.23672047	    -44.03002495	     10.76558709	      0.88161970	    -14.64686616	      4.95871429	      7.08959025
      4.20000000	      0.69607220	     -1.89545313	     15.38156592	     -0.12966245	      1.00212767	     -0.45560243	      7.13463087	     14.08074439	      0.70853664	    -18.41246412	      9.51361270	    -12.67090964	     19.30946221	    -11.03008002	      4.05531012	    -42.37690572	     10.79732599	      0.75032527	    -14.58365251	      4.85690368	      7.35272383
      4.21000000	      0.48455231	     -1.87542250	     14.50590959	     -0.12523115	      1.00188084	     -0.45575706	      6.99315868	     14.07851101	      1.49059471	    -18.49637344	      9.67688842	    -12.61528358	     19.64113256	    -10.71778793	      4.82595109	    -40.73468250	     10.75503833	      0.74862151	    -14.53551191	      4.72819685	      7.59190584
      4.22000000	      0.28119439	     -1.82320567	     13.63300408	     -0.12081105	      1.00165919	     -0.45595080	      6.84628435	     14.03933294	      2.26883677	    -18.60004277	      9.85661213	    -12.55065042	     19.95018598	    -10.33564252	      5.55356526	    -39.11098914	     10.63006687	      0.88181276	    -14.50572867	      4.58412424	      7.80465603
      4.23000000	      0.09256103	     -1.74466940	     12.77022457	     -0.11638363	      1.00146039	     -0.45614995	      6.68560356	     13.97241134	      3.03131889	    -18.71454102	     10.05181037	    -12.47427871	     20.23724481	     -9.89508567	      6.24329506	    -37.51185905	     10.41808196	      1.15393558	    -14.49767886	      4.42091724	      7.98826332
      4.24000000	     -0.05937531	     -1.65830510	     11.93016533	     -0.11191743	      1.00130768	     -0.45637706	      6.47013663	     13.89937977	      3.78631457	    -18.79742620	     10.25920962	    -12.34847847	     20.48928302	     -9.42353610	      6.89057530	    -35.94167504	     10.17014953	      1.69189610	    -14.52674552	      4.27007647	      8.14404948
      4.25000000	     -0.20154530	     -1.56152732	     11.13025179	     -0.10747171	      1.00114958	     -0.45664114	      6.25457135	     13.80792908	      4.48890440	    -18.88798105	     10.45479956	    -12.25467660	     20.74864025	     -8.90254446	      7.52434104	    -34.41302568	      9.79536906	      2.24342756	    -14.56932910	      4.12199650	      8.23133653
      4.26000000	     -0.34386202	     -1.45286427	     10.35878774	     -0.10299879	      1.00096887	     -0.45693517	      6.03906330	     13.69147859	      5.12212369	    -18.97347192	     10.66876453	    -12.19473163	     21.01423314	     -8.34237228	      8.10257287	    -32.91213323	      9.31683899	      2.69340289	    -14.60582512	      3.96670785	      8.30725560
